<svg xmlns="http://www.w3.org/2000/svg" xmlns:xlink="http://www.w3.org/1999/xlink" width="375" height="812" viewBox="0 0 375 812">
  <defs>
    <clipPath id="clip-path">
      <rect width="375" height="812" fill="none"/>
    </clipPath>
  </defs>
  <g id="グループ_109" data-name="グループ 109" transform="translate(0 -11)">
    <g id="リピートグリッド_1" data-name="リピートグリッド 1" transform="translate(0 11)" opacity="0.06" clip-path="url(#clip-path)">
      <path id="多角形_10" data-name="多角形 10" d="M34.5,0,69,55,34.5,110,0,55Z" fill="#898989"/>
      <g transform="translate(69)">
        <path id="多角形_10-2" data-name="多角形 10" d="M34.5,0,69,55,34.5,110,0,55Z" fill="#898989"/>
      </g>
      <g transform="translate(138)">
        <path id="多角形_10-3" data-name="多角形 10" d="M34.5,0,69,55,34.5,110,0,55Z" fill="#898989"/>
      </g>
      <g transform="translate(207)">
        <path id="多角形_10-4" data-name="多角形 10" d="M34.5,0,69,55,34.5,110,0,55Z" fill="#898989"/>
      </g>
      <g transform="translate(276)">
        <path id="多角形_10-5" data-name="多角形 10" d="M34.5,0,69,55,34.5,110,0,55Z" fill="#898989"/>
      </g>
      <g transform="translate(345)">
        <path id="多角形_10-6" data-name="多角形 10" d="M34.5,0,69,55,34.5,110,0,55Z" fill="#898989"/>
      </g>
      <g transform="translate(0 111)">
        <path id="多角形_10-7" data-name="多角形 10" d="M34.5,0,69,55,34.5,110,0,55Z" fill="#898989"/>
      </g>
      <g transform="translate(69 111)">
        <path id="多角形_10-8" data-name="多角形 10" d="M34.5,0,69,55,34.5,110,0,55Z" fill="#898989"/>
      </g>
      <g transform="translate(138 111)">
        <path id="多角形_10-9" data-name="多角形 10" d="M34.5,0,69,55,34.5,110,0,55Z" fill="#898989"/>
      </g>
      <g transform="translate(207 111)">
        <path id="多角形_10-10" data-name="多角形 10" d="M34.5,0,69,55,34.5,110,0,55Z" fill="#898989"/>
      </g>
      <g transform="translate(276 111)">
        <path id="多角形_10-11" data-name="多角形 10" d="M34.5,0,69,55,34.5,110,0,55Z" fill="#898989"/>
      </g>
      <g transform="translate(345 111)">
        <path id="多角形_10-12" data-name="多角形 10" d="M34.5,0,69,55,34.5,110,0,55Z" fill="#898989"/>
      </g>
      <g transform="translate(0 222)">
        <path id="多角形_10-13" data-name="多角形 10" d="M34.5,0,69,55,34.5,110,0,55Z" fill="#898989"/>
      </g>
      <g transform="translate(69 222)">
        <path id="多角形_10-14" data-name="多角形 10" d="M34.5,0,69,55,34.5,110,0,55Z" fill="#898989"/>
      </g>
      <g transform="translate(138 222)">
        <path id="多角形_10-15" data-name="多角形 10" d="M34.5,0,69,55,34.5,110,0,55Z" fill="#898989"/>
      </g>
      <g transform="translate(207 222)">
        <path id="多角形_10-16" data-name="多角形 10" d="M34.5,0,69,55,34.5,110,0,55Z" fill="#898989"/>
      </g>
      <g transform="translate(276 222)">
        <path id="多角形_10-17" data-name="多角形 10" d="M34.5,0,69,55,34.5,110,0,55Z" fill="#898989"/>
      </g>
      <g transform="translate(345 222)">
        <path id="多角形_10-18" data-name="多角形 10" d="M34.5,0,69,55,34.5,110,0,55Z" fill="#898989"/>
      </g>
      <g transform="translate(0 333)">
        <path id="多角形_10-19" data-name="多角形 10" d="M34.5,0,69,55,34.5,110,0,55Z" fill="#898989"/>
      </g>
      <g transform="translate(69 333)">
        <path id="多角形_10-20" data-name="多角形 10" d="M34.5,0,69,55,34.5,110,0,55Z" fill="#898989"/>
      </g>
      <g transform="translate(138 333)">
        <path id="多角形_10-21" data-name="多角形 10" d="M34.5,0,69,55,34.5,110,0,55Z" fill="#898989"/>
      </g>
      <g transform="translate(207 333)">
        <path id="多角形_10-22" data-name="多角形 10" d="M34.5,0,69,55,34.5,110,0,55Z" fill="#898989"/>
      </g>
      <g transform="translate(276 333)">
        <path id="多角形_10-23" data-name="多角形 10" d="M34.5,0,69,55,34.5,110,0,55Z" fill="#898989"/>
      </g>
      <g transform="translate(345 333)">
        <path id="多角形_10-24" data-name="多角形 10" d="M34.5,0,69,55,34.5,110,0,55Z" fill="#898989"/>
      </g>
      <g transform="translate(0 444)">
        <path id="多角形_10-25" data-name="多角形 10" d="M34.5,0,69,55,34.5,110,0,55Z" fill="#898989"/>
      </g>
      <g transform="translate(69 444)">
        <path id="多角形_10-26" data-name="多角形 10" d="M34.5,0,69,55,34.5,110,0,55Z" fill="#898989"/>
      </g>
      <g transform="translate(138 444)">
        <path id="多角形_10-27" data-name="多角形 10" d="M34.5,0,69,55,34.5,110,0,55Z" fill="#898989"/>
      </g>
      <g transform="translate(207 444)">
        <path id="多角形_10-28" data-name="多角形 10" d="M34.5,0,69,55,34.5,110,0,55Z" fill="#898989"/>
      </g>
      <g transform="translate(276 444)">
        <path id="多角形_10-29" data-name="多角形 10" d="M34.5,0,69,55,34.5,110,0,55Z" fill="#898989"/>
      </g>
      <g transform="translate(345 444)">
        <path id="多角形_10-30" data-name="多角形 10" d="M34.5,0,69,55,34.5,110,0,55Z" fill="#898989"/>
      </g>
      <g transform="translate(0 555)">
        <path id="多角形_10-31" data-name="多角形 10" d="M34.5,0,69,55,34.5,110,0,55Z" fill="#898989"/>
      </g>
      <g transform="translate(69 555)">
        <path id="多角形_10-32" data-name="多角形 10" d="M34.5,0,69,55,34.5,110,0,55Z" fill="#898989"/>
      </g>
      <g transform="translate(138 555)">
        <path id="多角形_10-33" data-name="多角形 10" d="M34.5,0,69,55,34.5,110,0,55Z" fill="#898989"/>
      </g>
      <g transform="translate(207 555)">
        <path id="多角形_10-34" data-name="多角形 10" d="M34.5,0,69,55,34.5,110,0,55Z" fill="#898989"/>
      </g>
      <g transform="translate(276 555)">
        <path id="多角形_10-35" data-name="多角形 10" d="M34.5,0,69,55,34.5,110,0,55Z" fill="#898989"/>
      </g>
      <g transform="translate(345 555)">
        <path id="多角形_10-36" data-name="多角形 10" d="M34.5,0,69,55,34.5,110,0,55Z" fill="#898989"/>
      </g>
      <g transform="translate(0 666)">
        <path id="多角形_10-37" data-name="多角形 10" d="M34.5,0,69,55,34.5,110,0,55Z" fill="#898989"/>
      </g>
      <g transform="translate(69 666)">
        <path id="多角形_10-38" data-name="多角形 10" d="M34.5,0,69,55,34.5,110,0,55Z" fill="#898989"/>
      </g>
      <g transform="translate(138 666)">
        <path id="多角形_10-39" data-name="多角形 10" d="M34.5,0,69,55,34.5,110,0,55Z" fill="#898989"/>
      </g>
      <g transform="translate(207 666)">
        <path id="多角形_10-40" data-name="多角形 10" d="M34.5,0,69,55,34.5,110,0,55Z" fill="#898989"/>
      </g>
      <g transform="translate(276 666)">
        <path id="多角形_10-41" data-name="多角形 10" d="M34.5,0,69,55,34.5,110,0,55Z" fill="#898989"/>
      </g>
      <g transform="translate(345 666)">
        <path id="多角形_10-42" data-name="多角形 10" d="M34.5,0,69,55,34.5,110,0,55Z" fill="#898989"/>
      </g>
      <g transform="translate(0 777)">
        <path id="多角形_10-43" data-name="多角形 10" d="M34.5,0,69,55,34.5,110,0,55Z" fill="#898989"/>
      </g>
      <g transform="translate(69 777)">
        <path id="多角形_10-44" data-name="多角形 10" d="M34.5,0,69,55,34.5,110,0,55Z" fill="#898989"/>
      </g>
      <g transform="translate(138 777)">
        <path id="多角形_10-45" data-name="多角形 10" d="M34.5,0,69,55,34.5,110,0,55Z" fill="#898989"/>
      </g>
      <g transform="translate(207 777)">
        <path id="多角形_10-46" data-name="多角形 10" d="M34.5,0,69,55,34.5,110,0,55Z" fill="#898989"/>
      </g>
      <g transform="translate(276 777)">
        <path id="多角形_10-47" data-name="多角形 10" d="M34.5,0,69,55,34.5,110,0,55Z" fill="#898989"/>
      </g>
      <g transform="translate(345 777)">
        <path id="多角形_10-48" data-name="多角形 10" d="M34.5,0,69,55,34.5,110,0,55Z" fill="#898989"/>
      </g>
    </g>
  </g>
</svg>
