<svg xmlns="http://www.w3.org/2000/svg" width="120.913" height="129.206"><g data-name="グループ 115"><path data-name="パス 1261" d="M120.912-.001v129.207H0l24.393-88.038z" fill="#731919"/><path data-name="パス 1172" d="M80.743 65.75L67.742 48.066a.84.84 0 00-1.076-.248l-15.072 8.1 14.036 19.09 14.831-7.97a.859.859 0 00.433-.577.875.875 0 00-.151-.711z" fill="#fff"/><path data-name="パス 1173" d="M80.198 68.694l-14.991 7.859.227.434 14.991-7.86z" fill="#fff"/><path data-name="パス 1174" d="M65.006 79.18l15.479-8.117-.227-.434-15.48 8.117z" fill="#fff"/><path data-name="パス 1175" d="M80.499 72.131l-16.23 8.667c-.493.128-.38-.265-.381-.879a6.592 6.592 0 01.881-3.566l-14.05-19.089c-.627.767-1.168 3.154-.721 5.752l13.876 18.851a.337.337 0 00.431.1l16.29-8.793a.525.525 0 00.115-.836z" fill="#fff"/><text transform="translate(36.913 102.719)" fill="#fff" font-size="12" font-family="YuGo-Bold, YuGothic" font-weight="700"><tspan x="0" y="0">correction</tspan></text></g></svg>