<svg id="設定の歯車アイコン_その2" data-name="設定の歯車アイコン　その2" xmlns="http://www.w3.org/2000/svg" width="17.164" height="17.164" viewBox="0 0 17.164 17.164">
  <path id="パス_4" data-name="パス 4" d="M16.841,10.3,15.533,9.27a.865.865,0,0,1-.324-.682V8.579a.865.865,0,0,1,.324-.684l1.308-1.033a.853.853,0,0,0,.259-1L16.526,4.48a.853.853,0,0,0-.887-.521l-1.655.194a.865.865,0,0,1-.713-.254l-.006-.006a.865.865,0,0,1-.253-.712l.194-1.655A.853.853,0,0,0,12.685.64L11.3.066a.853.853,0,0,0-1,.259L9.27,1.633a.865.865,0,0,1-.682.324H8.579A.865.865,0,0,1,7.9,1.633L6.863.325a.853.853,0,0,0-1-.259L4.48.64a.853.853,0,0,0-.521.887l.194,1.655A.865.865,0,0,1,3.9,3.9L3.894,3.9a.865.865,0,0,1-.712.253L1.527,3.96A.853.853,0,0,0,.64,4.48L.066,5.867a.853.853,0,0,0,.259,1L1.633,7.9a.865.865,0,0,1,.324.682v.008a.865.865,0,0,1-.324.684L.325,10.3a.853.853,0,0,0-.259,1L.64,12.685a.853.853,0,0,0,.887.521l1.655-.194a.865.865,0,0,1,.713.254l.006.006a.865.865,0,0,1,.253.712L3.96,15.638a.853.853,0,0,0,.521.887l1.387.574a.853.853,0,0,0,1-.259L7.9,15.533a.865.865,0,0,1,.682-.324h.008a.865.865,0,0,1,.684.324L10.3,16.841a.853.853,0,0,0,1,.259l1.387-.574a.853.853,0,0,0,.521-.887l-.194-1.655a.865.865,0,0,1,.254-.713l.006-.006a.865.865,0,0,1,.712-.253l1.655.194a.853.853,0,0,0,.887-.521L17.1,11.3A.853.853,0,0,0,16.841,10.3Zm-7.41.751a2.607,2.607,0,1,1,1.411-3.406A2.607,2.607,0,0,1,9.431,11.054Z" transform="translate(-0.001 -0.001)" fill="#260202"/>
</svg>
