<svg xmlns="http://www.w3.org/2000/svg" xmlns:xlink="http://www.w3.org/1999/xlink" width="142" height="149" viewBox="0 0 142 149">
  <defs>
    <filter id="パス_1325" x="0" y="0" width="142" height="149" filterUnits="userSpaceOnUse">
      <feOffset dy="3" input="SourceAlpha"/>
      <feGaussianBlur stdDeviation="3" result="blur"/>
      <feFlood flood-opacity="0.161"/>
      <feComposite operator="in" in2="blur"/>
      <feComposite in="SourceGraphic"/>
    </filter>
  </defs>
  <g id="グループ_113" data-name="グループ 113" transform="translate(-1593.685 -907.369)">
    <g transform="matrix(1, 0, 0, 1, 1593.69, 907.37)" filter="url(#パス_1325)">
      <g id="パス_1325-2" data-name="パス 1325" transform="translate(36.42 -6.97)" fill="#731919">
        <path d="M 95.92424774169922 143.46533203125 L -26.91651344299316 143.46533203125 L -26.91651344299316 13.71570777893066 L 71.03420257568359 54.58181381225586 L 95.92424774169922 143.46533203125 Z" stroke="none"/>
        <path d="M -26.41650390625 14.46607971191406 L -26.41650390625 142.96533203125 L 95.26499938964844 142.96533203125 L 70.61806488037109 54.949951171875 L -26.41650390625 14.46607971191406 M -27.41650390625 12.96533203125 L 71.45035552978516 54.21366119384766 L 96.58349609375 143.96533203125 L -27.41650390625 143.96533203125 L -27.41650390625 12.96533203125 Z" stroke="none" fill="#959595"/>
      </g>
    </g>
    <path id="パス_1170" data-name="パス 1170" d="M216.1,42.131l-9.669-3.519V65.2a3.21,3.21,0,0,1-3.2,3.2h-6.846l8.969,3.262a2.131,2.131,0,0,0,2.738-1.278l9.29-25.517A2.142,2.142,0,0,0,216.1,42.131Zm-2.61,5.428a.854.854,0,0,1-.8-.134.782.782,0,0,1-.241-.289,3.922,3.922,0,0,0-.118.465h-.006v.005a3.961,3.961,0,0,0-.1.8l-.316-.117-.433-.155a.4.4,0,0,0,.059-.086.018.018,0,0,1,.011-.005,4.6,4.6,0,0,0,.572-1.027.867.867,0,0,1-1.064-.348,1.115,1.115,0,0,1,.572-1.428l.043-.027.032-.016c.289-.176.626-.342.925-.5a2.776,2.776,0,0,0,.647-.417c.016-.021.027-.021.037-.021s.011.011.016.038a.3.3,0,0,0,.016.091,5.887,5.887,0,0,0,.364,1.027c.1.23.187.46.257.68.016.059.032.112.048.171a2.214,2.214,0,0,1,.038.316A.953.953,0,0,1,213.486,47.559Z" transform="translate(1455.39 926.578)" fill="#fff"/>
    <path id="パス_1171" data-name="パス 1171" d="M36,29.293V2.134A2.137,2.137,0,0,0,33.863,0H16.385a2.136,2.136,0,0,0-2.134,2.134V29.293a2.137,2.137,0,0,0,2.134,2.134H33.863A2.137,2.137,0,0,0,36,29.293ZM19.171,6.472a1.157,1.157,0,0,1-.385-.294c.021.256.054.508.1.743a4.25,4.25,0,0,0,.155.572h-.909a2.03,2.03,0,0,0,.086-.273,2.128,2.128,0,0,0,.064-.267,6.913,6.913,0,0,0,.1-.775,1.067,1.067,0,0,1-.321.256.549.549,0,0,1-.08.043,1.062,1.062,0,0,1-.433.091,1.085,1.085,0,0,1-1.08-1.086,1.071,1.071,0,0,1,.471-.887s0-.006.005-.006a1.035,1.035,0,0,1,.535-.182.311.311,0,0,1,.07-.005.921.921,0,0,1,.176.016.883.883,0,0,1-.112-.193.854.854,0,0,1-.1-.326A1.19,1.19,0,0,1,17.5,3.76,1.083,1.083,0,0,1,18.54,2.68H18.6a1.08,1.08,0,0,1,1.059,1.08,1.049,1.049,0,0,1-.112.482.646.646,0,0,1-.086.144c-.006.011-.016.021-.021.032a.137.137,0,0,1,.048-.006,1.072,1.072,0,0,1,.128-.01h.048a1.084,1.084,0,0,1-.048,2.166A1.131,1.131,0,0,1,19.171,6.472Zm8.36,12.681a2.545,2.545,0,0,1-1.027-.219,2.491,2.491,0,0,1-.9-.685c.011.139.021.273.032.412.048.465.112.925.2,1.358a8.427,8.427,0,0,0,.348,1.289H24.07a8.4,8.4,0,0,0,.348-1.289c.086-.434.15-.893.2-1.358.011-.139.021-.273.032-.412a2.489,2.489,0,0,1-.9.685,2.546,2.546,0,0,1-1.027.219A2.51,2.51,0,0,1,21.578,14.4a2.392,2.392,0,0,1,.995-.273,1.324,1.324,0,0,1,.144-.005,2.133,2.133,0,0,1,.267.016,1.158,1.158,0,0,1,.139.016,1.227,1.227,0,0,1-.1-.139,2.286,2.286,0,0,1-.161-.278,2.412,2.412,0,0,1-.219-.68,2.278,2.278,0,0,1-.037-.428,2.521,2.521,0,0,1,1.8-2.412,2.294,2.294,0,0,1,.642-.1.019.019,0,0,1,.016-.006h.118a.019.019,0,0,1,.016.006,2.511,2.511,0,0,1,2.439,2.508,2.272,2.272,0,0,1-.037.428,2.4,2.4,0,0,1-.219.68,2.71,2.71,0,0,1-.257.417,2.555,2.555,0,0,1,.407-.032,1.328,1.328,0,0,1,.144.005,2.392,2.392,0,0,1,.995.273,2.51,2.51,0,0,1-1.139,4.749ZM32.7,28.469a1.047,1.047,0,0,1-.449-.1.884.884,0,0,1-.1-.054,1.021,1.021,0,0,1-.289-.241,6.6,6.6,0,0,0,.1.754,3.647,3.647,0,0,0,.15.567H31.21a4.84,4.84,0,0,0,.16-.594c.027-.16.048-.321.064-.487.011-.08.021-.16.027-.241a1,1,0,0,1-.331.267.057.057,0,0,1-.038.016,1.044,1.044,0,0,1-.465.107,1.079,1.079,0,0,1-.08-2.155.42.42,0,0,1,.08-.005.969.969,0,0,1,.176.01.873.873,0,0,1-.112-.192,1.021,1.021,0,0,1-.107-.46,1.083,1.083,0,0,1,1.048-1.086h.086a1.083,1.083,0,0,1,1.027,1.086,1.051,1.051,0,0,1-.059.348v.005a.325.325,0,0,1-.043.086.837.837,0,0,1-.118.214.972.972,0,0,1,.177-.01.634.634,0,0,1,.1.005.918.918,0,0,1,.177.032,1.08,1.08,0,0,1-.278,2.123Z" transform="translate(1624.749 962.484)" fill="#fff"/>
    <path id="パス_1370" data-name="パス 1370" d="M2.626-7.111H1.053V2.535H2.678V-.975A2.023,2.023,0,0,0,4.55.195c1.534,0,2.8-1.339,2.8-3.783S6.188-7.267,4.628-7.267a2.367,2.367,0,0,0-2,1.209Zm.052,2.327A1.721,1.721,0,0,1,4.212-5.993c.819,0,1.456.728,1.456,2.444S4.979-1.066,4.121-1.066a1.678,1.678,0,0,1-1.443-1.2Zm7.982-5.46H9.022V.026H10.66ZM14.092-4.9a1.36,1.36,0,0,1,1.365-1.248c.858,0,1.235.364,1.235,1.261v.4a13.7,13.7,0,0,0-2.041.208c-1.547.3-2.327,1.105-2.327,2.353a2.028,2.028,0,0,0,2.2,2.119A2.674,2.674,0,0,0,16.77-.91c.039.416.065.624.117.936H18.4a18.929,18.929,0,0,1-.117-2.106V-4.914c0-1.586-.923-2.366-2.769-2.366a2.743,2.743,0,0,0-2.951,1.963Zm2.6,2.756a1.946,1.946,0,0,1-1.664,1.17,1.011,1.011,0,0,1-1.144-1.079c0-.637.4-1.027,1.17-1.209a7.425,7.425,0,0,1,1.638-.208Zm9.243-4.966H24.31l-.819,2.964c-.234.832-.416,1.56-.637,2.366h-.13c-.208-.832-.364-1.521-.6-2.34l-.845-2.99H19.552L21.97-.1l-.1.312a1.355,1.355,0,0,1-1.352,1.105,4.784,4.784,0,0,1-.91-.091l.065,1.248a5.551,5.551,0,0,0,.884.065c1.456,0,2.314-.611,2.873-2.249Z" transform="translate(1642.464 1017.207)" fill="#fff"/>
  </g>
</svg>
